# xmcd
# 
# Track frame offsets:
#     150
#     24090
#     39117
#     58560
#     78937
#     99055
#     126865
#     138362
#     159775
#     182035
#     195677
#     207425
#     228820
# 
# Disc length: 3277
# 
# Revision: 8
# Processed by: cddbd v1.5.2PL0 Copyright (c) Steve Scherf et al.
# Submitted via: fre:ac v1.0.31
# 
DISCID=910ccb0d
DTITLE=Diana Krall - When I Look in Your Eyes
DYEAR=1999
DGENRE=Jazz
TTITLE0=Let's Face the Music and Dance
TTITLE1=Devil May Care
TTITLE2=Let's Fall in Love
TTITLE3=When I Look in Your Eyes
TTITLE4=Popsicle Toes
TTITLE5=I've Got You Under My Skin
TTITLE6=I Can't Give You Anything but Love
TTITLE7=I'll String Along With You
TTITLE8=East of the Sun (and West of the Moon)
TTITLE9=Pick Yourself Up
TTITLE10=The Best Thing for You
TTITLE11=Do It Again
TTITLE12=Why Should I Care?
EXTD=[Catégorie: Jazz]\n[Enregistrement: 1999] YEAR: 1999
EXTT0=
EXTT1=
EXTT2=
EXTT3=
EXTT4=
EXTT5=
EXTT6=
EXTT7=
EXTT8=
EXTT9=
EXTT10=
EXTT11=
EXTT12=
PLAYORDER=
